<svg xmlns="http://www.w3.org/2000/svg" xmlns:xlink="http://www.w3.org/1999/xlink" width="46" height="46" viewBox="0 0 46 46">
  <defs>
    <clipPath id="clip-Energy_efficiency">
      <rect width="46" height="46"/>
    </clipPath>
  </defs>
  <g id="Energy_efficiency" data-name="Energy efficiency" clip-path="url(#clip-Energy_efficiency)">
    <rect width="46" height="46" fill="#fff"/>
    <g id="Gruppe_118" data-name="Gruppe 118" transform="translate(-38 -31)">
      <g id="Gruppe_95" data-name="Gruppe 95" transform="translate(38.697 32.085)">
        <circle id="szürke" cx="22" cy="22" r="22" transform="translate(0.303 -0.085)" fill="#f1f5f0"/>
      </g>
      <circle id="planet" cx="16" cy="16" r="16" transform="translate(45 38)" fill="#05ccfb"/>
      <ellipse id="szürke-2" data-name="szürke" cx="2" cy="1.5" rx="2" ry="1.5" transform="translate(60 42.6)" fill="#6bb76e" opacity="0.84"/>
      <path id="Schnittmenge_19" data-name="Schnittmenge 19" d="M1.081,16.788c-2.2-3.325-.365-3.358-.365-3.358a7.884,7.884,0,0,0,3.65-1.614,3.6,3.6,0,0,0,1.06-3.008c-.335-.829-2.467-.854-2.1-2.6S6.89,3.054,7.314,1.433A3.636,3.636,0,0,1,8.82.053a15.929,15.929,0,0,1,1.924,7.615,15.963,15.963,0,0,1-5.6,12.16A24.48,24.48,0,0,1,1.081,16.788Z" transform="translate(66.255 46.333)" fill="#73c677"/>
      <path id="Schnittmenge_20" data-name="Schnittmenge 20" d="M-.13.2A4.8,4.8,0,0,1,1.4.434,11.288,11.288,0,0,0,6.871.252C9.473-.41,12.378.131,12.394,3.1s3.449,1.737,2.454,3.69a6.372,6.372,0,0,1-1,1.466h-.088A15.994,15.994,0,0,1-.13.2Z" transform="translate(47.236 61.739)" fill="#73c677"/>
      <path id="Schnittmenge_18" data-name="Schnittmenge 18" d="M5.737,15.366C5.036,14.888,4.612,12.8,3.2,12.8A3.825,3.825,0,0,1,.031,11.2,16.03,16.03,0,0,1,11.229.086a3.9,3.9,0,0,1,1.08.636A3.685,3.685,0,0,1,9.563,6.609c-4.446.727.059,5.072-1.285,7.129-.575.88-1.371,1.774-2.08,1.774A.8.8,0,0,1,5.737,15.366Z" transform="translate(45.561 38.473)" fill="#73c677"/>
      <path id="Differenzmenge_7" data-name="Differenzmenge 7" d="M1.5,32c-.5,0-1-.023-1.5-.069A15.918,15.918,0,0,0,14.5,16,15.919,15.919,0,0,0,0,.069C.5.023,1.008,0,1.5,0A15.894,15.894,0,0,1,12.814,4.686a16,16,0,0,1,0,22.628A15.894,15.894,0,0,1,1.5,32Z" transform="translate(59.5 38)" fill="#3f8899" opacity="0.32"/>
    </g>
  </g>
</svg>
