<svg xmlns="http://www.w3.org/2000/svg" xmlns:xlink="http://www.w3.org/1999/xlink" width="50" height="49" viewBox="0 0 50 49">
  <defs>
    <clipPath id="clip-Labor_standard_icon">
      <rect width="50" height="49"/>
    </clipPath>
  </defs>
  <g id="Labor_standard_icon" data-name="Labor standard icon" clip-path="url(#clip-Labor_standard_icon)">
    <rect width="50" height="49" fill="#fff"/>
    <circle id="szürke" cx="24" cy="24" r="24" transform="translate(1 1)" fill="#f1f5f0"/>
    <g id="Gruppe_119" data-name="Gruppe 119" transform="translate(-543 -411.039)">
      <path id="Pfad_118" data-name="Pfad 118" d="M734.813,582.039a5.747,5.747,0,0,1-11.391,0Zm0,0" transform="translate(-175.753 -143.381)" fill="#66cb98"/>
      <path id="Pfad_119" data-name="Pfad 119" d="M798.944,417.057l-4.959-13.408a.664.664,0,1,1,1.245-.461L800.19,416.6a.664.664,0,0,1-1.246.461Zm0,0" transform="translate(-240.214 20.354)" fill="#d2e4e7"/>
      <path id="Pfad_120" data-name="Pfad 120" d="M718.952,417.45a.664.664,0,0,1-.393-.853l4.959-13.408a.664.664,0,0,1,1.246.461L719.8,417.057a.664.664,0,0,1-.853.392Zm0,0" transform="translate(-171.27 20.354)" fill="#d2e4e7"/>
      <path id="Pfad_121" data-name="Pfad 121" d="M1053.326,419.053a.664.664,0,0,1-.389-.855l4.959-13.258a.664.664,0,1,1,1.244.465l-4.959,13.258a.664.664,0,0,1-.855.389Zm0,0" transform="translate(-476.913 18.752)" fill="#d2e4e7"/>
      <path id="Pfad_122" data-name="Pfad 122" d="M1133.321,418.664l-4.959-13.258a.664.664,0,1,1,1.244-.465l4.959,13.258a.664.664,0,1,1-1.244.465Zm0,0" transform="translate(-545.857 18.752)" fill="#d2e4e7"/>
      <path id="Pfad_123" data-name="Pfad 123" d="M798.266,373.96a.664.664,0,0,1-.061-1.325c2.206-.207,2.794-.459,11.54-2.857a.664.664,0,0,1,.351,1.281c-8.792,2.411-9.447,2.681-11.768,2.9l-.063,0Zm0,0" transform="translate(-243.559 50.394)" fill="#d2e4e7"/>
      <path id="Pfad_124" data-name="Pfad 124" d="M980.564,373.272c-.021,0-.042,0-.063,0-2.409-.226-3.054-.5-12.235-3.014a.664.664,0,1,1,.351-1.281c9.195,2.522,9.747,2.76,12.008,2.973a.664.664,0,0,1-.061,1.325Zm0,0" transform="translate(-399.11 51.129)" fill="#d2e4e7"/>
      <path id="Pfad_126" data-name="Pfad 126" d="M946.934,425.468V398.3a2.591,2.591,0,0,1-2.606,0v27.167Zm0,0" transform="translate(-377.676 24.7)" fill="#b4d2d7"/>
      <path id="Pfad_128" data-name="Pfad 128" d="M946.264,398.321c-.706,0-1.367-.007-1.936-.02v1.542h2.606v-1.525l-.67,0Zm0,0" transform="translate(-377.676 50.325)" fill="#9bb9c3"/>
      <path id="Pfad_146" data-name="Pfad 146" d="M946.264,398.322c-.706,0-1.367-.007-1.936-.02v1.583h2.606v-1.565l-.67,0Zm0,0" transform="translate(-377.676 23.836)" fill="#9bb9c3"/>
      <path id="Pfad_129" data-name="Pfad 129" d="M1039.5,550.992h13.03a1.12,1.12,0,0,1,1.117,1.117v.434a1.12,1.12,0,0,1-1.117,1.117H1039.5a1.12,1.12,0,0,1-1.117-1.117v-.434a1.12,1.12,0,0,1,1.117-1.117Zm0,0" transform="translate(-463.645 -115.047)" fill="#66cb98"/>
      <path id="Pfad_130" data-name="Pfad 130" d="M1052.526,556.66H1039.5a1.116,1.116,0,0,1-.892-.449,1.109,1.109,0,0,0-.225.668v.434a1.12,1.12,0,0,0,1.117,1.117h13.03a1.12,1.12,0,0,0,1.117-1.117v-.434a1.111,1.111,0,0,0-.225-.668,1.117,1.117,0,0,1-.892.449Zm0,0" transform="translate(-463.645 -119.816)" fill="#54a185"/>
      <path id="Pfad_131" data-name="Pfad 131" d="M1075.414,582.039a5.747,5.747,0,0,1-11.391,0Zm0,0" transform="translate(-487.085 -143.381)" fill="#66cb98"/>
      <path id="Pfad_132" data-name="Pfad 132" d="M726.078,582.039h-2.656a5.752,5.752,0,0,0,7.023,4.823,5.754,5.754,0,0,1-4.367-4.823Zm0,0" transform="translate(-175.753 -143.381)" fill="#54a185"/>
      <path id="Pfad_133" data-name="Pfad 133" d="M1066.679,582.039h-2.656a5.752,5.752,0,0,0,7.024,4.823,5.753,5.753,0,0,1-4.368-4.823Zm0,0" transform="translate(-487.085 -143.381)" fill="#54a185"/>
      <path id="Pfad_136" data-name="Pfad 136" d="M899.177,711.348H889.125a1.12,1.12,0,0,0-1.117,1.117v1.817h12.286v-1.817a1.12,1.12,0,0,0-1.117-1.117Zm0,0" transform="translate(-326.196 -261.445)" fill="#b4d2d7"/>
      <path id="Pfad_137" data-name="Pfad 137" d="M888.03,721.789a1.11,1.11,0,0,0-.022.22v1.817h12.286v-1.817a1.11,1.11,0,0,0-.022-.22Zm0,0" transform="translate(-326.196 -270.989)" fill="#9bb9c3"/>
      <path id="Pfad_138" data-name="Pfad 138" d="M885.1,742.4H872.07a1.12,1.12,0,0,0-1.117,1.117v.434a1.121,1.121,0,0,0,1.117,1.117H885.1a1.12,1.12,0,0,0,1.117-1.117v-.434A1.12,1.12,0,0,0,885.1,742.4Zm0,0" transform="translate(-310.606 -289.824)" fill="#b4d2d7"/>
      <path id="Pfad_139" data-name="Pfad 139" d="M885.1,748.066H872.07a1.115,1.115,0,0,1-.892-.449,1.108,1.108,0,0,0-.225.668v.434a1.12,1.12,0,0,0,1.117,1.117H885.1a1.12,1.12,0,0,0,1.117-1.117v-.434a1.106,1.106,0,0,0-.225-.668,1.116,1.116,0,0,1-.892.449Zm0,0" transform="translate(-310.606 -294.598)" fill="#9bb9c3"/>
      <g id="Gruppe_126" data-name="Gruppe 126" transform="translate(579.849 423.648) rotate(-45)">
        <path id="Pfad_135" data-name="Pfad 135" d="M3.56,1.78A1.78,1.78,0,1,1,1.78,0,1.78,1.78,0,0,1,3.56,1.78Zm0,0" transform="translate(0 0)" fill="#d2e4e7"/>
        <path id="Pfad_142" data-name="Pfad 142" d="M2.656,1.78A1.771,1.771,0,0,1,3.108.6a1.78,1.78,0,1,0,0,2.364A1.77,1.77,0,0,1,2.656,1.78Zm0,0" transform="translate(0 0)" fill="#b4d2d7"/>
      </g>
      <g id="Gruppe_128" data-name="Gruppe 128" transform="translate(562.834 420.36) rotate(-45)">
        <path id="Pfad_140" data-name="Pfad 140" d="M5.185,2.592A2.593,2.593,0,1,1,2.592,0,2.593,2.593,0,0,1,5.185,2.592Zm0,0" transform="matrix(0.809, -0.588, 0.588, 0.809, 0, 3.048)" fill="#d6dd24"/>
        <path id="Pfad_143" data-name="Pfad 143" d="M2.656,2.592A2.591,2.591,0,0,1,3.921.366,2.593,2.593,0,1,0,2.592,5.185a2.58,2.58,0,0,0,1.328-.366A2.591,2.591,0,0,1,2.656,2.592Zm0,0" transform="translate(1.029 1.029)" fill="#b9c751"/>
      </g>
      <path id="Pfad_144" data-name="Pfad 144" d="M705.117,550.992h13.03a1.12,1.12,0,0,1,1.117,1.117v.434a1.12,1.12,0,0,1-1.117,1.117h-13.03A1.12,1.12,0,0,1,704,552.543v-.434a1.12,1.12,0,0,1,1.117-1.117Zm0,0" transform="translate(-158 -115.047)" fill="#66cb98"/>
      <path id="Pfad_145" data-name="Pfad 145" d="M718.147,556.66h-13.03a1.117,1.117,0,0,1-.892-.449,1.11,1.11,0,0,0-.225.668v.434a1.12,1.12,0,0,0,1.117,1.117h13.03a1.12,1.12,0,0,0,1.117-1.117v-.434a1.107,1.107,0,0,0-.225-.668,1.116,1.116,0,0,1-.892.449Zm0,0" transform="translate(-158 -119.816)" fill="#54a185"/>
      <g id="Gruppe_127" data-name="Gruppe 127" transform="translate(551.115 423.648) rotate(-45)">
        <path id="Pfad_134" data-name="Pfad 134" d="M3.559,1.78A1.78,1.78,0,1,1,1.78,0a1.78,1.78,0,0,1,1.78,1.78Zm0,0" transform="translate(0 0)" fill="#d2e4e7"/>
        <path id="Pfad_141" data-name="Pfad 141" d="M2.656,1.78A1.771,1.771,0,0,1,3.108.6a1.78,1.78,0,1,0,0,2.364A1.77,1.77,0,0,1,2.656,1.78Zm0,0" transform="translate(0 0)" fill="#b4d2d7"/>
      </g>
    </g>
  </g>
</svg>
