<svg xmlns="http://www.w3.org/2000/svg" xmlns:xlink="http://www.w3.org/1999/xlink" width="56" height="56" viewBox="0 0 56 56">
  <defs>
    <clipPath id="clip-Productivity_icon">
      <rect width="56" height="56"/>
    </clipPath>
  </defs>
  <g id="Productivity_icon" data-name="Productivity icon" clip-path="url(#clip-Productivity_icon)">
    <rect width="56" height="56" fill="#fff"/>
    <g id="Gruppe_1" data-name="Gruppe 1" transform="translate(-436.7 -1148.5)">
      <circle id="szürke" cx="27" cy="27" r="27" transform="translate(437.7 1149.5)" fill="#f1f5f0"/>
      <g id="Gruppe_117" data-name="Gruppe 117" transform="translate(442.6 1154.2)">
        <path id="Pfad_13" data-name="Pfad 13" d="M41.4,164.771l-10.1,8.466,3.363.779c-.026.108-.05.215-.073.325-.111.538-.2,1.088-.265,1.642-.073.6-.119,1.21-.136,1.827a19.107,19.107,0,0,0,.059,2.16c.041.558.111,1.11.2,1.654a19.1,19.1,0,0,0,.615,2.588c.164.533.351,1.053.561,1.564a19.206,19.206,0,0,0,1.165,2.384q.414.72.89,1.4c.314.455.65.894,1,1.317s.725.832,1.113,1.222a18.067,18.067,0,0,0,1.464,1.332q.383.315.779.606l5.508-8.011a9.567,9.567,0,0,1-3.793-7.935,9.859,9.859,0,0,1,.233-1.868l3.454.755Z" transform="translate(-31.298 -156.578)" fill="#d2d800" stroke="#b5b5b5" stroke-miterlimit="10" stroke-width="0.75"/>
        <path id="Pfad_14" data-name="Pfad 14" d="M47.821,222.259l3.548,12.859,2.04-2.845c.086.067.173.133.262.2.438.319.894.622,1.365.905.507.308,1.036.595,1.582.857a17.967,17.967,0,0,0,1.958.807c.516.184,1.038.339,1.562.471a17.985,17.985,0,0,0,2.563.456c.543.059,1.083.09,1.625.1a18.165,18.165,0,0,0,2.6-.141q.811-.1,1.607-.277c.533-.113,1.06-.253,1.579-.414s1.035-.348,1.539-.556a17.853,17.853,0,0,0,1.778-.842q.435-.233.854-.489l-4.975-8.368a9.081,9.081,0,0,1-8.621.391,9.348,9.348,0,0,1-1.581-.965l2.055-2.94Z" transform="translate(-42.675 -194.904)" fill="#6c9" stroke="#b5b5b5" stroke-miterlimit="10" stroke-width="0.75"/>
        <path id="Pfad_15" data-name="Pfad 15" d="M97.227,218.89l12.986,1.351-1.834-2.988c.092-.057.184-.115.276-.176.45-.3.894-.623,1.324-.967.466-.37.921-.768,1.36-1.191a18.428,18.428,0,0,0,1.453-1.567c.358-.423.69-.863,1-1.314a18.843,18.843,0,0,0,1.357-2.273c.253-.495.481-1,.686-1.511a19.329,19.329,0,0,0,.828-2.527q.207-.809.34-1.632c.093-.548.16-1.1.2-1.655s.064-1.113.06-1.669a18.856,18.856,0,0,0-.111-2q-.052-.5-.13-.993l-9.431,1.658a9.623,9.623,0,0,1-2.815,8.351,9.411,9.411,0,0,1-1.457,1.15L101.41,205.9Z" transform="translate(-76.694 -178.89)" fill="#fff" stroke="#b5b5b5" stroke-miterlimit="10" stroke-width="0.75"/>
        <path id="Pfad_16" data-name="Pfad 16" d="M121.635,176.8l6.022-11.855-3.39.641c-.018-.109-.037-.218-.059-.327-.105-.539-.235-1.08-.388-1.617-.164-.58-.357-1.16-.579-1.733a18.926,18.926,0,0,0-.886-1.961c-.253-.5-.529-.976-.823-1.439a18.784,18.784,0,0,0-1.562-2.13c-.356-.423-.728-.826-1.118-1.211a18.725,18.725,0,0,0-1.988-1.721q-.658-.495-1.356-.926c-.463-.291-.941-.56-1.427-.806s-.987-.472-1.493-.674a17.736,17.736,0,0,0-1.859-.634q-.473-.135-.95-.243l-1.978,9.585a9.334,9.334,0,0,1,6.541,5.762,9.8,9.8,0,0,1,.506,1.811l-3.465.7Z" transform="translate(-83.976 -146.701)" fill="#ccd8d9" stroke="#b5b5b5" stroke-miterlimit="10" stroke-width="0.75"/>
        <path id="Pfad_18" data-name="Pfad 18" d="M81.224,149.575,72.67,139.482l-.665,3.463c-.106-.023-.211-.045-.319-.065-.528-.1-1.068-.174-1.611-.225-.587-.058-1.185-.087-1.788-.087a17.816,17.816,0,0,0-2.107.122c-.544.058-1.081.145-1.61.254a17.97,17.97,0,0,0-2.51.7c-.515.183-1.018.39-1.511.619a18.428,18.428,0,0,0-2.294,1.26q-.691.444-1.34.951c-.435.334-.855.69-1.257,1.062s-.791.766-1.161,1.173a18.35,18.35,0,0,0-1.259,1.536c-.048.065-.092.134-.139.2l3.309-2.774,4.308,8.7a9.154,9.154,0,0,1,9.4-3.827l-.638,3.556Z" transform="translate(-46.309 -139.482)" fill="#739497" stroke="#b5b5b5" stroke-miterlimit="10" stroke-width="0.75"/>
      </g>
    </g>
  </g>
</svg>
